<?xml version="1.0" encoding="UTF-8" standalone="no"?>
<svg
   xmlns:dc="http://purl.org/dc/elements/1.1/"
   xmlns:cc="http://creativecommons.org/ns#"
   xmlns:rdf="http://www.w3.org/1999/02/22-rdf-syntax-ns#"
   xmlns:svg="http://www.w3.org/2000/svg"
   xmlns="http://www.w3.org/2000/svg"
   xmlns:sodipodi="http://sodipodi.sourceforge.net/DTD/sodipodi-0.dtd"
   xmlns:inkscape="http://www.inkscape.org/namespaces/inkscape"
   viewBox="0 0 893.72 624.7"
   version="1.1"
   id="svg152"
   sodipodi:docname="logo-md-black.svg"
   inkscape:version="1.0.2 (e86c870879, 2021-01-15, custom)">
  <metadata
     id="metadata156">
    <rdf:RDF>
      <cc:Work
         rdf:about="">
        <dc:format>image/svg+xml</dc:format>
        <dc:type
           rdf:resource="http://purl.org/dc/dcmitype/StillImage" />
        <dc:title>Asset 1</dc:title>
      </cc:Work>
    </rdf:RDF>
  </metadata>
  <sodipodi:namedview
     pagecolor="#ffffff"
     bordercolor="#666666"
     borderopacity="1"
     objecttolerance="10"
     gridtolerance="10"
     guidetolerance="10"
     inkscape:pageopacity="0"
     inkscape:pageshadow="2"
     inkscape:window-width="1600"
     inkscape:window-height="844"
     id="namedview154"
     showgrid="false"
     inkscape:zoom="0.5162478"
     inkscape:cx="349.06394"
     inkscape:cy="223.90607"
     inkscape:window-x="0"
     inkscape:window-y="28"
     inkscape:window-maximized="1"
     inkscape:current-layer="svg152" />
  <defs
     id="defs112">
    <style
       id="style110">.cls-1{fill:#fff;}</style>
  </defs>
  <title
     id="title114">Asset 1</title>
  <g
     id="Layer_2"
     data-name="Layer 2"
     style="fill:#000000">
    <g
       id="Layer_2-2"
       data-name="Layer 2"
       style="fill:#000000">
      <polygon
         class="cls-1"
         points="8.7 0 118 0 296 384.3 426 100.3 426 180.3 283.4 491 270.7 491 80.7 79.6 80.7 472.3 158 482.3 158 495.6 0 495.6 0 483 48 477.6 48 19 8.7 14.3 8.7 0"
         id="polygon116"
         style="fill:#000000" />
      <rect
         class="cls-1"
         x="498"
         y="157"
         width="35.3"
         height="207.3"
         id="rect118"
         style="fill:#000000" />
      <path
         class="cls-1"
         d="M557.4,0V36.3S657.4,12,724.7,59.6c0,0,84.3,46.7,84.3,180.3,0,0,4.2,130.4-71.2,186.7a51.73,51.73,0,0,0-5.1,4.2c-9.4,8.6-54.1,42.6-170.1,39.4a20.9,20.9,0,0,0-2.5.1l-55.4,6.5v14.7h150s193.1-.3,232.7-176.3a103.08,103.08,0,0,0,1.9-12.4c1.8-20.8,9.3-91.6-.6-124,0,0-26.7-153.7-190-172.7Z"
         id="path120"
         style="fill:#000000" />
      <path
         class="cls-1"
         d="M130.1,564.3l8.8-1v-3.8H120.6l-20.5,52.9L78.5,559.5H61.3v3.8l8.6,1.1v53.8l-8.6,1.2v3.8H82.5v-3.8l-7.8-1.2V587.9l-.5-18.1,21.9,53.4h4.7l20.8-53.4v24c0,8.3,0,16.6-.2,24.6l-8.1,1v3.8h25.6v-3.8l-8.8-1c-.2-8.2-.2-16.4-.2-24.6V589C130,580.7,130,572.4,130.1,564.3Z"
         id="path122"
         style="fill:#000000" />
      <path
         class="cls-1"
         d="M183,548.2c3.5-2,4.8-3.5,4.8-5.2a3.22,3.22,0,0,0-3.5-3.1c-1.6,0-3.2,1-5.9,3.6-2.9,2.8-5.9,5.8-8.8,8.8l1.7,2.3C175.1,552.6,179.1,550.4,183,548.2Z"
         id="path124"
         style="fill:#000000" />
      <path
         class="cls-1"
         d="M192,606.3l-2.1,12.2H165.3c-.2-8.2-.2-16.5-.2-25.6h14.4l1.2,9H185V579.4h-4.3l-1.3,9.1H165.1c0-8.2,0-16.3.2-24.2H188l2.1,12.2h5.3l-.7-16.9H147.4v3.8l8.8,1c.2,8.2.2,16.4.2,24.6v4.8c0,8.3,0,16.6-.2,24.6l-8.8,1v3.8h49.3l.7-16.9Z"
         id="path126"
         style="fill:#000000" />
      <polygon
         class="cls-1"
         points="253.1 618.4 235.2 588.7 250.8 564.5 259.3 563.3 259.3 559.5 254 559.5 248.7 559.5 237.4 559.5 237.4 563.3 245.6 564.6 232.9 584.9 220.4 564.3 229.1 563.3 229.1 559.5 217.6 559.5 208.1 559.5 202.5 559.5 202.5 563.3 210.9 564.3 227.8 592.2 210.8 618.1 201.6 619.4 201.6 623.2 207.5 623.2 212.8 623.2 223.5 623.2 223.5 619.4 215.9 618.3 230 596 243.5 618.4 234.7 619.4 234.7 623.2 246.4 623.2 255.9 623.2 261.3 623.2 261.3 619.4 253.1 618.4"
         id="polygon128"
         style="fill:#000000" />
      <path
         class="cls-1"
         d="M284.2,564.3l8.8-1v-3.8H266.5v3.8l8.8,1c.2,8.2.2,16.4.2,24.6v4.8c0,8.3,0,16.6-.2,24.6l-8.8,1v3.8H293v-3.8l-8.8-1c-.2-8.2-.2-16.4-.2-24.6v-4.8C284.1,580.7,284.1,572.4,284.2,564.3Z"
         id="path130"
         style="fill:#000000" />
      <path
         class="cls-1"
         d="M345.4,606.3l-1.9,11a26.21,26.21,0,0,1-11.5,2.6c-13.2,0-22.5-10-22.5-28.5s10.4-28.5,23.2-28.5a19.76,19.76,0,0,1,9.9,2.7l1.8,10.9h5.8l-.4-13.8a36.87,36.87,0,0,0-18.3-4.6c-18.5,0-32,14.3-32,33.3,0,19.4,12.9,33.3,32.1,33.3a39.16,39.16,0,0,0,19.2-4.6l.4-13.8Z"
         id="path132"
         style="fill:#000000" />
      <path
         class="cls-1"
         d="M388.7,558.1c-14.6,0-29.1,12.4-29.1,33.3,0,21.7,14.3,33.3,29.1,33.3s29-12.4,29-33.3C417.6,569.7,403.3,558.1,388.7,558.1Zm0,61.8c-13.4,0-19.1-14.3-19.1-28.5s5.7-28.5,19.1-28.5,19,14.3,19,28.5S402,619.9,388.7,619.9Z"
         id="path134"
         style="fill:#000000" />
      <path
         class="cls-1"
         d="M448.2,596.3h21.9v6.1H448.2Z"
         id="path136"
         style="fill:#000000" />
      <path
         class="cls-1"
         d="M528.4,559.5h-28v3.8l8.8,1c.2,8.2.2,16.4.2,24.6v3.6c0,9.3,0,17.7-.2,25.8l-8.9,1v3.8h26.2c18.4,0,32.5-11.2,32.5-31.7C559,570.7,546.4,559.5,528.4,559.5Zm-2.5,59.3h-7.8c-.2-8.4-.2-16.9-.2-26.2V589c0-8.5,0-16.9.2-25.1h8.6c14.1,0,22.2,9.6,22.2,27.5C549,608.7,540.8,618.8,525.9,618.8Z"
         id="path138"
         style="fill:#000000" />
      <path
         class="cls-1"
         d="M582.7,564.3l8.8-1v-3.8H565v3.8l8.8,1c.2,8.2.2,16.4.2,24.6v4.8c0,8.3,0,16.6-.2,24.6l-8.8,1v3.8h26.5v-3.8l-8.8-1c-.2-8.2-.2-16.4-.2-24.6v-4.8C582.5,580.7,582.6,572.4,582.7,564.3Z"
         id="path140"
         style="fill:#000000" />
      <polygon
         class="cls-1"
         points="659 559.5 652.4 559.5 647.2 559.5 637.1 559.5 637.1 563.8 645.5 564.6 630 610.6 613.8 564.6 622.9 563.8 622.9 559.5 612 559.5 602.9 559.5 597.3 559.5 597.3 563.3 604.6 564.2 626.8 623.8 630.6 623.8 650.7 564.5 659 563.3 659 559.5"
         id="polygon142"
         style="fill:#000000" />
      <path
         class="cls-1"
         d="M682,564.3l8.8-1v-3.8H664.3v3.8l8.8,1c.2,8.2.2,16.4.2,24.6v4.8c0,8.3,0,16.6-.2,24.6l-8.8,1v3.8h26.5v-3.8l-8.8-1c-.2-8.2-.2-16.4-.2-24.6v-4.8C681.8,580.7,681.8,572.4,682,564.3Z"
         id="path144"
         style="fill:#000000" />
      <polygon
         class="cls-1"
         points="761.1 559.5 753.1 559.5 748.3 559.5 738.3 559.5 738.3 563.3 748.3 564.6 748.3 607.2 713.6 559.5 699.4 559.5 699.4 563.3 706.2 564.2 707 565.3 707 618.2 698.9 619.4 698.9 623.2 707 623.2 711.7 623.2 721.7 623.2 721.7 619.4 711.7 618.1 711.7 571.8 750 623.8 753.1 623.8 753.1 613.8 753.1 564.5 761.1 563.3 761.1 559.5"
         id="polygon146"
         style="fill:#000000" />
      <path
         class="cls-1"
         d="M825.6,591.4c0,20.8-14.3,33.3-29,33.3s-29.1-11.6-29.1-33.3c0-20.8,14.4-33.3,29.1-33.3S825.6,569.7,825.6,591.4Zm-28.9,28.5c13.4,0,19-14.3,19-28.5s-5.6-28.5-19-28.5-19.1,14.3-19.1,28.5S783.3,619.9,796.7,619.9Z"
         id="path148"
         style="fill:#000000" />
    </g>
  </g>
</svg>
