<?xml version="1.0" encoding="UTF-8" standalone="no"?>
<!-- Generator: Adobe Illustrator 22.1.0, SVG Export Plug-In . SVG Version: 6.00 Build 0)  -->

<svg
   version="1.1"
   id="Layer_2"
   x="0px"
   y="0px"
   viewBox="0 0 1366 768"
   style="enable-background:new 0 0 1366 768;"
   xml:space="preserve"
   sodipodi:docname="md-logo-black.svg"
   inkscape:version="1.1 (c4e8f9ed74, 2021-05-24)"
   xmlns:inkscape="http://www.inkscape.org/namespaces/inkscape"
   xmlns:sodipodi="http://sodipodi.sourceforge.net/DTD/sodipodi-0.dtd"
   xmlns="http://www.w3.org/2000/svg"
   xmlns:svg="http://www.w3.org/2000/svg"><defs
   id="defs43" /><sodipodi:namedview
   id="namedview41"
   pagecolor="#ffffff"
   bordercolor="#666666"
   borderopacity="1.0"
   inkscape:pageshadow="2"
   inkscape:pageopacity="0.0"
   inkscape:pagecheckerboard="0"
   showgrid="false"
   inkscape:zoom="0.84635417"
   inkscape:cx="672.88615"
   inkscape:cy="376.91077"
   inkscape:window-width="1600"
   inkscape:window-height="844"
   inkscape:window-x="0"
   inkscape:window-y="28"
   inkscape:window-maximized="0"
   inkscape:current-layer="Layer_2" />
<g
   id="g8"
   transform="matrix(1.4543362,0,0,1.4543362,-318.67986,-74.426722)">
	<polygon
   points="396.3,548 396.3,561.3 238.3,561.3 238.3,548.7 286.3,543.3 286.3,84.7 247,80 247,65.7 356.3,65.7 534.3,450 664.3,166 664.3,246 521.7,556.7 509,556.7 319,145.3 319,538 "
   id="polygon2" />
	<rect
   x="736.29999"
   y="222.7"
   width="35.299999"
   height="207.3"
   id="rect4" />
	<path
   d="M 795.7,65.7 V 102 c 0,0 100,-24.3 167.3,23.3 0,0 84.3,46.7 84.3,180.3 0,0 4.2,130.4 -71.2,186.7 -1.8,1.3 -3.5,2.7 -5.1,4.2 -9.4,8.6 -54.1,42.6 -170.1,39.4 -0.8,0 -1.7,0 -2.5,0.1 l -55.4,6.5 v 14.7 h 150 c 0,0 193.1,-0.3 232.7,-176.3 0.9,-4.1 1.5,-8.2 1.9,-12.4 1.8,-20.8 9.3,-91.6 -0.6,-124 0,0 -26.7,-153.7 -190,-172.7 z"
   id="path6" />
</g>













</svg>
